<?xml version="1.0" encoding="iso-8859-1"?>
<!-- Generator: Adobe Illustrator 19.0.0, SVG Export Plug-In . SVG Version: 6.00 Build 0)  -->
<svg xmlns="http://www.w3.org/2000/svg" xmlns:xlink="http://www.w3.org/1999/xlink" version="1.1" id="Capa_1" x="0px" y="0px" viewBox="0 0 455 455" style="enable-background:new 0 0 455 455;" xml:space="preserve" width="512" height="512">
<g>
	<path style="fill:#6DA8D6;" d="M272.5,30v30h-15c-8.25,0-15,6.75-15,15v35h-30V75c0-8.25-6.75-15-15-15h-15V30h15   c8.25,0,15-6.75,15-15V0h30v15c0,8.25,6.75,15,15,15H272.5z"/>
	<rect x="176" y="153.481" style="fill:#185F8D;" width="103" height="64.999"/>
	<path style="fill:#185F8D;" d="M279,163.48l5.74-53.59C285.91,98.95,277.87,90,266.87,90h-78.74c-11,0-19.04,8.95-17.87,19.89   l5.74,53.59C176,163.481,279,163.481,279,163.48z"/>
	<polygon style="fill:#274B6D;" points="279,223.48 295.665,379 159.324,379 176,223.48  "/>
	<path style="fill:#6DA8D6;" d="M319.69,388.32l7.12,26.68l-99.311,20l-99.319-20l7.13-26.68c2.84-10.62,14.16-19.32,25.16-19.32   h134.05C305.52,369,316.85,377.7,319.69,388.32z"/>
	<path style="fill:#6DA8D6;" d="M279,203.48c8.28,0,15,6.72,15,15c0,8.29-6.72,15-15,15H176c-8.29,0-15-6.71-15-15   c0-8.28,6.71-15,15-15H279z"/>
	<rect x="116" y="415" style="fill:#185F8D;" width="223" height="40"/>
</g>















</svg>
