<svg width="79" height="175" viewBox="0 0 79 175" fill="none" xmlns="http://www.w3.org/2000/svg">
<path d="M39.39 0.0819726C35.46 0.255973 32.57 4.45797 34.78 8.43397C35.47 9.68697 35.37 9.95597 33.39 11.928C24.33 20.992 21.52 50.02 28.04 67.33L29.39 70.91H26.09C20.53 70.91 17.83 74.4 21.28 77.11C22.44 78.02 23.59 78.28 26.39 78.28C28.38 78.28 29.99 78.48 29.97 78.71C29.96 78.94 25.05 97.13 19.05 119.12L8.12 159.11L6.44 159.47C1.71 160.44 0.5 162.52 0.5 169.63V174.75H3.89001V174.8H41.05H78.22V169.68C78.22 162.57 76.99 160.47 72.26 159.5L71.27 159.31C69.85 156.1 67.08 146.76 59.18 119.09C52.81 96.81 47.6 78.52 47.6 78.44C47.6 78.36 49.74 78.28 52.35 78.28C56.29 78.28 57.35 78.09 58.59 77.11C60.52 75.6 60.52 73.61 58.59 72.1C57.39 71.15 56.28 70.91 52.94 70.91H48.79L50.13 67.33C53.15 59.32 54.5 45.95 53.31 35.743C52.93 32.469 52.43 29.482 52.23 29.111C52.01 28.725 50.04 31.707 47.63 36.062C45.32 40.254 43.26 43.67 43.06 43.67C42.86 43.67 42.14 42.672 41.44 41.435L40.17 39.183L45.33 30.37L50.49 21.557L48.75 17.886C47.79 15.868 46.17 13.347 45.17 12.282C43.36 10.36 43.35 10.32 44.33 8.69997C46.11 5.77597 45.11 1.98297 42.22 0.666972C41.26 0.226972 40.29 0.0419726 39.39 0.0819726V0.0819726Z" fill="black"/>
</svg>