<svg width="79" height="207" viewBox="0 0 79 207" fill="none" xmlns="http://www.w3.org/2000/svg">
<path d="M0 201.67C0 194.57 1.2178 192.48 5.925 191.51L7.594 191.17L16.82 151.46C21.894 129.62 26.059 111.44 26.074 111.05C26.095 110.53 24.769 110.34 21.251 110.34C15.816 110.34 13.656 109.56 12.594 107.23C11.698 105.26 11.739 103.81 12.747 101.87C13.766 99.9 14.717 99.45 18.791 99.03L21.977 98.7L14.423 89.91L6.87 81.11L6.84 77.25L6.809 73.387L18.722 59.376L30.634 45.364L30.638 38.696L30.642 32.029H23.266H15.889V23.801V15.573H23.266H30.642V8.19597V0.81897H38.87H47.099V8.19597V15.573H54.192H61.285V23.801V32.029H54.192H47.099V39.018V46.007L58.731 59.697L70.364 73.386L70.334 77.25L70.304 81.11L62.75 89.91L55.197 98.7L58.667 99.03C63.01 99.43 63.956 99.86 64.994 101.87C66.039 103.89 66.045 105.43 65.016 107.42C63.842 109.69 61.869 110.34 56.151 110.34C53.357 110.34 51.074 110.53 51.077 110.76C51.081 111 55.372 129.19 60.613 151.19L70.142 191.19L72.097 191.52C77.029 192.34 78.308 194.43 78.308 201.67V206.8H39.154H0V201.67V201.67Z" fill="black"/>
</svg>
