<svg width="114" height="144" viewBox="0 0 114 144" fill="none" xmlns="http://www.w3.org/2000/svg">
<path d="M0.630005 138.68C0.630005 133.01 1.43999 130.35 3.92999 127.72C6.90999 124.58 8.15 124.25 17.91 123.94L26.95 123.66L41.22 79.68C49.67 53.65 55.25 35.64 54.88 35.55C54.39 35.43 21.16 43.18 17.61 44.25C16.8 44.49 16.66 42.95 16.31 30.53C16.1 22.84 16.03 16.43 16.16 16.3C16.44 16.02 48.58 7.61597 49.38 7.61597C49.69 7.61597 49.79 8.46597 49.62 9.55997C49.36 11.138 49.58 11.779 50.76 12.96C52.6 14.81 54.76 14.83 56.55 13.03C58.31 11.274 58.33 9.08497 56.61 7.35797L55.27 6.01797L61.86 4.28297C78.36 -0.0620315 78.38 -0.0650315 82.65 0.990968C89.47 2.67397 94.66 7.06197 96.31 12.55C96.96 14.71 97.1 24.7 97.1 69.56V123.94L100.65 123.96C104.72 123.97 107.94 125.23 110.26 127.7C112.76 130.37 113.56 133.02 113.56 138.68V143.8H57.1H0.630005V138.68V138.68Z" fill="black"/>
</svg>
