<svg width="75" height="133" viewBox="0 0 75 133" fill="none" xmlns="http://www.w3.org/2000/svg">
<path d="M0.659912 127.67C0.659912 121.38 1.46996 119.52 4.82996 118.03L7.21991 116.97L17.9199 77.65C23.8099 56.02 28.75 37.88 28.9 37.33C29.14 36.45 28.6899 36.34 24.9199 36.34C20.1299 36.34 17.6899 35.09 17.6899 32.65C17.6899 30.33 20.1499 28.96 24.3099 28.96H27.95L26.45 27.4C23.76 24.61 22.53 21.18 22.53 16.48C22.53 11.55 23.7899 8.24997 26.8099 5.21997C29.9599 2.05997 32.7599 0.904968 37.2599 0.904968C41.7699 0.904968 44.5599 2.05997 47.7199 5.21997C53.4099 10.93 53.59 21.68 48.08 27.4L46.58 28.96H50.78C55.53 28.96 57.9799 30.21 57.9799 32.65C57.9799 35.09 55.5399 36.34 50.7499 36.34C47.5999 36.34 46.5699 36.52 46.7499 37.05C46.8899 37.44 52.0899 55.61 58.3099 77.44L69.6099 117.12L71.4699 118.22C74.2899 119.89 74.9999 121.78 74.9999 127.67V132.8H37.83H0.659912V127.67V127.67Z" fill="black"/>
</svg>
