<svg width="80" height="197" viewBox="0 0 80 197" fill="none" xmlns="http://www.w3.org/2000/svg">
<path d="M0.73999 191.67C0.73999 184.57 1.95 182.48 6.66 181.51L8.32999 181.17L17.56 141.46C22.63 119.62 26.79 101.44 26.81 101.05C26.83 100.53 25.5 100.34 21.99 100.34C18.9 100.34 16.57 100.04 15.57 99.53C11.61 97.48 11.89 91.28 16.02 89.57L17.74 88.86L12.64 84.92C7.59999 81.02 7.53999 80.94 7.53999 78.49V76.01L17.72 68.17L27.89 60.332L25.73 58.062C20.95 53.048 17.61 45.245 16.5 36.468C15.93 31.938 15.67 31.108 14.81 31.108C14.25 31.108 13.78 30.917 13.77 30.682C13.76 30.448 12.77 24.256 11.57 16.922C10.37 9.587 9.44999 3.511 9.52999 3.419C9.60999 3.327 11.56 5.68 13.86 8.64799C16.16 11.617 18.17 14.05 18.33 14.057C18.48 14.064 19.61 11.785 20.83 8.993C22.05 6.202 23.25 4.04 23.49 4.19C23.73 4.339 24.76 5.925 25.77 7.713C26.78 9.501 28.22 11.942 28.96 13.139L30.32 15.315L33.4 10.882C36.03 7.104 36.44 6.183 36.15 4.646C35.52 1.266 39.2 -0.794005 41.59 1.6C42.86 2.867 43.01 3.981 42.14 5.605C41.66 6.512 42.1 7.422 44.76 10.958C46.53 13.302 48.15 15.219 48.36 15.219C48.57 15.219 50.27 12.54 52.12 9.264C53.98 5.989 55.64 3.308 55.82 3.306C56.01 3.304 57.12 5.74 58.3 8.719L60.44 14.136L64.46 8.735C66.67 5.765 68.53 3.392 68.59 3.461C68.65 3.53 67.67 9.779 66.41 17.347C64.98 25.915 63.87 31.108 63.46 31.108C63.07 31.108 62.55 33.234 62.14 36.468C61.03 45.245 57.7 53.048 52.92 58.062L50.75 60.332L60.92 68.17L71.1 76.01V78.49C71.1 80.94 71.04 81.02 66.04 84.88L60.99 88.8L62.93 89.5C66.11 90.65 67.39 94.25 65.75 97.42C64.58 99.69 62.6 100.34 56.89 100.34C54.09 100.34 51.81 100.53 51.81 100.76C51.82 101 56.11 119.19 61.35 141.19L70.88 181.19L72.83 181.52C77.76 182.34 79.04 184.43 79.04 191.67V196.8H39.89H0.73999V191.67V191.67Z" fill="black"/>
</svg>
