<svg width="91" height="105" viewBox="0 0 91 105" fill="none" xmlns="http://www.w3.org/2000/svg">
<path d="M0.51001 99.37C0.51001 94.12 0.570013 93.88 2.17001 92.28L3.83002 90.62H13.49H23.14L23.46 88.21C23.64 86.88 24.81 74.3 26.06 60.26C27.31 46.21 28.48 33.38 28.67 31.74L29.02 28.77H19.02H9.02002V14.58V0.389969L14.56 0.399971C17.6 0.399971 21.43 0.559972 23.07 0.759972L26.05 1.11996L26.06 6.28996C26.07 14.4 25.75 14.01 32.36 14.01H37.96V7.48997V0.959969H40.94C42.58 0.959969 46.41 0.789966 49.46 0.589966L54.99 0.219971V7.39996V14.58H60.95H66.9V7.48997V0.389969H74.85H82.79V14.58V28.77H72.3C66.52 28.77 61.8 28.96 61.79 29.19C61.79 30.35 66.97 87.18 67.22 88.77L67.52 90.62H77.47H87.42L89.08 92.28C90.68 93.88 90.74 94.12 90.74 99.37V104.8H45.63H0.51001V99.37V99.37Z" fill="black"/>
</svg>
